<svg width="0" height="0" style="display:none">
  <symbol fill="none" xmlns="http://www.w3.org/2000/svg" viewBox="0 0 58 58" id="seo-report">
    <path d="M20.8308 35.423L20.8279 35.4201C20.6405 35.2341 20.4917 35.0129 20.3901 34.7692C20.2886 34.5255 20.2363 34.2641 20.2363 34.0001C20.2363 33.736 20.2886 33.4746 20.3901 33.2309C20.4917 32.9872 20.6405 32.766 20.8279 32.5801L20.8279 32.5801L20.8294 32.5786L25.8294 27.5786L25.8294 27.5786L25.8308 27.5772C26.0167 27.3897 26.238 27.2409 26.4817 27.1394C26.7254 27.0378 26.9868 26.9856 27.2508 26.9856C27.5148 26.9856 27.7763 27.0378 28.02 27.1394C28.2637 27.2409 28.4849 27.3897 28.6708 27.5772L28.6709 27.5772L31.8959 30.8272L32.2508 31.1849L32.6057 30.8272L35.8294 27.5786C35.8296 27.5784 35.8298 27.5782 35.83 27.578C36.2069 27.2014 36.718 26.9898 37.2508 26.9898C37.784 26.9898 38.2953 27.2016 38.6723 27.5786C39.0493 27.9556 39.2611 28.4669 39.2611 29.0001C39.2611 29.5332 39.0493 30.0445 38.6723 30.4215L33.6723 35.4215L33.6708 35.423C33.4849 35.6104 33.2637 35.7592 33.02 35.8607C32.7763 35.9623 32.5148 36.0146 32.2508 36.0146C31.9868 36.0146 31.7254 35.9623 31.4817 35.8607C31.238 35.7592 31.0167 35.6104 30.8308 35.423L30.8307 35.4229L27.6057 32.1729L27.2508 31.8152L26.8959 32.1729L23.6709 35.4229L23.6708 35.423C23.4849 35.6104 23.2637 35.7592 23.02 35.8607L23.2123 36.3223L23.02 35.8607C22.7763 35.9623 22.5148 36.0146 22.2508 36.0146C21.9868 36.0146 21.7254 35.9623 21.4817 35.8607L21.2894 36.3223L21.4817 35.8607C21.238 35.7592 21.0167 35.6104 20.8308 35.423Z" fill="url(#paint0_linear_3097_32805)" stroke="white"/>
    <path d="M42.25 7.14991H44.75C46.5667 7.14991 48.3091 7.8716 49.5937 9.15623C50.8783 10.4409 51.6 12.1832 51.6 13.9999V46.4999C51.6 48.3166 50.8783 50.059 49.5937 51.3436C48.3091 52.6282 46.5667 53.3499 44.75 53.3499H14.75C12.9333 53.3499 11.1909 52.6282 9.90632 51.3436C8.62169 50.059 7.9 48.3166 7.9 46.4999V13.9999C7.9 12.1832 8.62169 10.4409 9.90632 9.15623C11.1909 7.8716 12.9333 7.14991 14.75 7.14991H17.25C17.7407 7.14991 18.2112 7.34482 18.5581 7.69176C18.9051 8.0387 19.1 8.50926 19.1 8.99991C19.1 9.49056 18.9051 9.96111 18.5581 10.3081C18.2112 10.655 17.7407 10.8499 17.25 10.8499H14.75C13.9146 10.8499 13.1134 11.1818 12.5226 11.7725C11.9319 12.3633 11.6 13.1645 11.6 13.9999V46.4999C11.6 47.3353 11.9319 48.1366 12.5226 48.7273C13.1134 49.318 13.9146 49.6499 14.75 49.6499H44.75C45.5854 49.6499 46.3867 49.318 46.9774 48.7273C47.5681 48.1366 47.9 47.3353 47.9 46.4999V13.9999C47.9 13.1645 47.5681 12.3633 46.9774 11.7725C46.3867 11.1818 45.5854 10.8499 44.75 10.8499H42.25C41.7594 10.8499 41.2888 10.655 40.9419 10.3081C40.5949 9.96111 40.4 9.49056 40.4 8.99991C40.4 8.50926 40.5949 8.0387 40.9419 7.69176C41.2888 7.34482 41.7594 7.14991 42.25 7.14991Z" fill="#132A50" stroke="white" stroke-width="1.3"/>
    <path d="M31.6 11.5V12.15H32.25H34.75C35.2407 12.15 35.7112 12.3449 36.0581 12.6918C36.4051 13.0388 36.6 13.5093 36.6 14C36.6 14.4906 36.4051 14.9612 36.0581 15.3081C35.7112 15.6551 35.2407 15.85 34.75 15.85H24.75C24.2593 15.85 23.7888 15.6551 23.4419 15.3081C23.0949 14.9612 22.9 14.4906 22.9 14C22.9 13.5093 23.0949 13.0388 23.4419 12.6918C23.7888 12.3449 24.2593 12.15 24.75 12.15H27.25H27.9V11.5V6.49997C27.9 6.00932 28.0949 5.53876 28.4419 5.19182C28.7888 4.84488 29.2594 4.64997 29.75 4.64997C30.2407 4.64997 30.7112 4.84488 31.0581 5.19182C31.4051 5.53876 31.6 6.00932 31.6 6.49997V11.5Z" fill="url(#paint1_linear_3097_32805)" stroke="white" stroke-width="1.3"/>
    <defs>
      <linearGradient id="paint0_linear_3097_32805" x1="39.7611" y1="35.5684" x2="18.985" y2="33.2662" gradientUnits="userSpaceOnUse">
        <stop stop-color="#FF4A72"/>
        <stop offset="0.510417" stop-color="#FF7772"/>
        <stop offset="1" stop-color="#FFB35B"/>
      </linearGradient>
      <linearGradient id="paint1_linear_3097_32805" x1="37.25" y1="15.3207" x2="21.5656" y2="14.2762" gradientUnits="userSpaceOnUse">
        <stop stop-color="#FF4A72"/>
        <stop offset="0.510417" stop-color="#FF7772"/>
        <stop offset="1" stop-color="#FFB35B"/>
      </linearGradient>
    </defs>
  </symbol>

  <symbol fill="none" xmlns="http://www.w3.org/2000/svg" viewBox="0 0 58 58" id="backlink-gray">
    <path d="M18.4772 10.6287C21.6598 8.74275 25.3729 7.65662 29.3469 7.65662C38.8189 7.65662 46.8596 13.8366 49.6381 22.3825M8.01172 28.9918C8.01172 22.9381 10.5376 17.4654 14.5874 13.584" stroke="#8F97A6" stroke-width="2.4" stroke-miterlimit="10" stroke-linecap="round"/>
    <path d="M5.19922 26L8.0578 28.8586C8.1359 28.9367 8.26254 28.9367 8.34064 28.8586L11.1992 26" stroke="#8F97A6" stroke-width="2.4" stroke-miterlimit="10" stroke-linecap="round"/>
    <path d="M50.6663 29.0166C50.6663 40.7956 41.1185 50.3434 29.3396 50.3434C19.6065 50.3434 11.3974 43.8182 8.83789 34.9103" stroke="#8F97A6" stroke-width="2.4" stroke-miterlimit="10" stroke-linecap="round"/>
    <path d="M53.6508 31.4977L50.6223 27.9931C50.5425 27.9007 50.3992 27.9008 50.3195 27.9933L47.3008 31.4977" stroke="#8F97A6" stroke-width="2.4" stroke-miterlimit="10" stroke-linecap="round"/>
    <path d="M30.113 21.8139L34.0786 17.8483C35.5352 16.3917 37.8927 16.3917 39.3493 17.8483L40.4943 18.9934C41.9509 20.4499 41.9509 22.8074 40.4943 24.264L33.5987 31.1596C32.1421 32.6162 29.7846 32.6162 28.328 31.1596L27.8145 30.646" stroke="#8F97A6" stroke-width="2.4" stroke-miterlimit="10" stroke-linecap="round"/>
    <path d="M28.5714 36.1861L24.6058 40.1517C23.1492 41.6083 20.7917 41.6083 19.3352 40.1517L18.1901 39.0066C16.7335 37.5501 16.7335 35.1926 18.1901 33.736L25.0857 26.8404C26.5423 25.3838 28.8998 25.3838 30.3564 26.8404L30.87 27.354" stroke="#8F97A6" stroke-width="2.4" stroke-miterlimit="10" stroke-linecap="round"/>
  </symbol>

  <symbol fill="none" xmlns="http://www.w3.org/2000/svg" viewBox="0 0 56 56" id="speedometer">
    <path d="M28.9025 29.9441C28.2563 30.3169 27.4884 30.4178 26.7678 30.2245C26.0472 30.0311 25.4329 29.5594 25.06 28.9132C24.6872 28.2669 24.5864 27.499 24.7797 26.7784C24.973 26.0578 25.4447 25.4435 26.091 25.0707L37.2342 21.8842L28.9025 29.9441Z" fill="url(#paint0_linear_2739_6718)"/>
    <path d="M46.9804 16.2609C44.1696 11.384 39.6322 7.73819 34.2644 6.04351C28.8966 4.34883 23.0884 4.72844 17.9868 7.10738C12.8852 9.48633 8.86101 13.6917 6.70887 18.893C4.55673 24.0944 4.43308 29.9136 6.36233 35.2017C6.44693 35.4353 6.6208 35.6257 6.84574 35.7311C7.07069 35.8366 7.32829 35.8484 7.56194 35.764L12.8384 33.8334C12.9574 33.7953 13.0676 33.7338 13.1625 33.6525C13.2574 33.5711 13.335 33.4717 13.3909 33.3599C13.4468 33.2481 13.4798 33.1263 13.4879 33.0016C13.496 32.8769 13.4791 32.7518 13.4382 32.6338C12.6161 30.3688 12.3519 27.9392 12.6681 25.5505C12.9842 23.1618 13.8712 20.8845 15.2542 18.9114C16.6371 16.9383 18.4751 15.3275 20.6126 14.2154C22.7501 13.1033 25.1241 12.5227 27.5336 12.5227C29.9431 12.5227 32.3171 13.1033 34.4546 14.2154C36.5921 15.3275 38.4301 16.9383 39.813 18.9114C41.1959 20.8845 42.083 23.1618 42.3991 25.5505C42.7152 27.9392 42.4511 30.3688 41.629 32.6338C41.5446 32.8674 41.5564 33.125 41.6619 33.35C41.7673 33.5749 41.9577 33.7488 42.1913 33.8334C47.8145 35.8952 47.702 35.9608 48.18 35.7078C48.2926 35.6554 48.3936 35.5813 48.4773 35.4895C48.5609 35.3978 48.6255 35.2904 48.6673 35.1736C49.7821 32.0888 50.2088 28.7976 49.9174 25.5305C49.626 22.2635 48.6235 19.0997 46.9804 16.2609ZM7.81499 33.674C6.18766 28.4809 6.67951 22.8549 9.18329 18.0229L12.4447 19.8973C10.4868 23.762 10.0908 28.2319 11.3388 32.3807L7.81499 33.674ZM13.4382 18.2853L10.1861 16.4109C11.9556 13.6308 14.3657 11.3154 17.2144 9.65867C20.0632 8.00194 23.2675 7.05218 26.5589 6.88899V10.6378C23.9263 10.7981 21.368 11.5734 19.0893 12.9016C16.8106 14.2297 14.8751 16.0736 13.4382 18.2853ZM28.4333 10.6846V6.88899C31.7319 7.04379 34.9451 7.98864 37.8025 9.64403C40.6599 11.2994 43.0779 13.6169 44.853 16.4015L41.6009 18.2759C40.1531 16.0686 38.2074 14.2318 35.9205 12.9133C33.6335 11.5948 31.069 10.8315 28.4333 10.6846ZM47.1772 33.674L43.6534 32.3807C44.896 28.2336 44.4967 23.7675 42.5381 19.9066L45.7995 18.0322C48.3119 22.858 48.8074 28.4834 47.1772 33.674Z" fill="#132A50"/>
    <path d="M34.1024 36.8793C30.9534 36.8793 29.5757 38.7537 27.542 40.7968C25.3771 38.6787 24.0369 36.8793 20.9348 36.8793C19.8592 36.881 18.8005 37.1471 17.852 37.6542C16.9035 38.1613 16.0942 38.8939 15.4954 39.7874C14.8966 40.6809 14.5267 41.7079 14.4182 42.778C14.3097 43.8482 14.466 44.9285 14.8734 45.924C15.2807 46.9195 15.9265 47.7995 16.754 48.4867C17.5815 49.1738 18.5652 49.647 19.6186 49.8645C20.672 50.082 21.7626 50.0371 22.7946 49.7339C23.8266 49.4307 24.7682 48.8784 25.5364 48.1256L27.4952 46.0825L29.5008 48.1256C30.269 48.8784 31.2106 49.4307 32.2426 49.7339C33.2746 50.0371 34.3652 50.082 35.4186 49.8645C36.472 49.647 37.4557 49.1738 38.2832 48.4867C39.1107 47.7995 39.7565 46.9195 40.1638 45.924C40.5711 44.9285 40.7275 43.8482 40.619 42.778C40.5105 41.7079 40.1406 40.6809 39.5418 39.7874C38.943 38.8939 38.1337 38.1613 37.1852 37.6542C36.2367 37.1471 35.178 36.881 34.1024 36.8793ZM22.8092 45.4452C22.4771 45.771 22.0693 46.0093 21.6225 46.1387C21.1756 46.2681 20.7036 46.2846 20.2488 46.1867C19.794 46.0888 19.3706 45.8796 19.0166 45.5778C18.6625 45.2761 18.3889 44.8911 18.2202 44.4576C18.0515 44.024 17.993 43.5554 18.05 43.0937C18.1069 42.632 18.2776 42.1916 18.5466 41.8121C18.8157 41.4326 19.1747 41.1257 19.5915 40.9191C20.0083 40.7124 20.4698 40.6124 20.9348 40.6281C22.4718 40.6281 23.156 41.6965 24.8898 43.4396L22.8092 45.4452ZM36.8671 43.4865C36.8418 44.0176 36.6663 44.5307 36.3612 44.9661C36.056 45.4015 35.6336 45.7415 35.1431 45.9466C34.6525 46.1516 34.1138 46.2134 33.5895 46.1246C33.0653 46.0359 32.5769 45.8003 32.1811 45.4452L30.1474 43.4396L32.1811 41.434C32.5829 41.0746 33.0796 40.8382 33.612 40.7531C34.1444 40.6679 34.69 40.7377 35.1839 40.954C35.6777 41.1703 36.099 41.524 36.3974 41.9731C36.6959 42.4221 36.8589 42.9474 36.8671 43.4865Z" fill="url(#paint1_linear_2739_6718)"/>
    <defs>
      <linearGradient id="paint0_linear_2739_6718" x1="37.2342" y1="29.5247" x2="24.142" y2="28.4437" gradientUnits="userSpaceOnUse">
        <stop stop-color="#FF4A72"/>
        <stop offset="0.510417" stop-color="#FF7772"/>
        <stop offset="1" stop-color="#FFB35B"/>
      </linearGradient>
      <linearGradient id="paint1_linear_2739_6718" x1="40.6524" y1="48.7622" x2="13.4009" y2="45.7344" gradientUnits="userSpaceOnUse">
        <stop stop-color="#FF4A72"/>
        <stop offset="0.510417" stop-color="#FF7772"/>
        <stop offset="1" stop-color="#FFB35B"/>
      </linearGradient>
    </defs>
  </symbol>
  <symbol fill="none" xmlns="http://www.w3.org/2000/svg" viewBox="0 0 20 20" id="h-search">
    <path d="M9 17C13.4183 17 17 13.4183 17 9C17 4.58172 13.4183 1 9 1C4.58172 1 1 4.58172 1 9C1 13.4183 4.58172 17 9 17Z" stroke="currentColor" stroke-width="2" stroke-linecap="round" stroke-linejoin="round"/>
    <path d="M19 19L14.65 14.65" stroke="currentColor" stroke-width="2" stroke-linecap="round" stroke-linejoin="round"/>
  </symbol>
</svg>
